<svg width="1672" height="1628" viewBox="0 0 1672 1628" fill="none" xmlns="http://www.w3.org/2000/svg">
<g filter="url(#filter0_d_103_2)">
<path d="M823.701 427.364L429.891 659.829C427.891 661.009 425.366 659.568 425.366 657.245V493.646L1044.43 141V280.643L631.29 1081.18L1044.43 839.214V1009.75L417 1370.11V1231.76L823.701 427.364Z" fill="url(#paint0_linear_103_2)" stroke="white" stroke-width="18"/>
<path d="M1033.49 543.84L635.152 774.219V610.122L1254.21 257.476V397.119L841.076 1197.65L1254.21 955.69V1126.22L626.786 1486.59V1348.23L1033.49 543.84Z" fill="url(#paint1_linear_103_2)" stroke="white" stroke-width="18"/>
<path fill-rule="evenodd" clip-rule="evenodd" d="M566.939 574.729L635.152 610.766L770.29 532.901L824.345 427.364L566.939 574.729ZM566.939 574.729L434.104 654.619C428.224 658.155 428.306 666.707 434.252 670.131L632 784L634.5 610.5L566.939 574.729Z" fill="url(#paint2_linear_103_2)"/>
<path d="M635.152 610.766L630.947 618.724L635.34 621.044L639.645 618.564L635.152 610.766ZM566.939 574.729L562.467 566.918L562.383 566.967L562.3 567.016L566.939 574.729ZM770.29 532.901L774.783 540.699L777.088 539.371L778.3 537.003L770.29 532.901ZM824.345 427.364L832.355 431.467L846.168 404.5L819.873 419.554L824.345 427.364ZM434.104 654.619L438.743 662.331L438.743 662.331L434.104 654.619ZM434.252 670.131L429.761 677.93L429.761 677.93L434.252 670.131ZM632 784L627.509 791.799L640.778 799.44L640.999 784.13L632 784ZM634.5 610.5L643.499 610.63L643.578 605.123L638.711 602.546L634.5 610.5ZM639.356 602.808L571.143 566.771L562.735 582.687L630.947 618.724L639.356 602.808ZM765.797 525.102L630.658 602.968L639.645 618.564L774.783 540.699L765.797 525.102ZM816.335 423.261L762.279 528.798L778.3 537.003L832.355 431.467L816.335 423.261ZM571.411 582.54L828.817 435.175L819.873 419.554L562.467 566.918L571.411 582.54ZM438.743 662.331L571.578 582.442L562.3 567.016L429.466 646.906L438.743 662.331ZM438.743 662.331C438.721 662.319 438.71 662.31 438.706 662.308C438.703 662.305 438.705 662.306 438.709 662.311C438.714 662.316 438.72 662.322 438.726 662.33C438.732 662.338 438.736 662.345 438.74 662.352C438.747 662.365 438.748 662.37 438.747 662.365C438.746 662.363 438.745 662.358 438.744 662.352C438.743 662.346 438.743 662.339 438.743 662.331C438.743 662.324 438.743 662.317 438.744 662.31C438.745 662.304 438.745 662.3 438.746 662.297C438.747 662.292 438.747 662.298 438.74 662.311C438.736 662.318 438.731 662.325 438.726 662.333C438.72 662.341 438.714 662.347 438.71 662.352C438.705 662.357 438.704 662.358 438.707 662.356C438.71 662.353 438.721 662.344 438.743 662.331L429.466 646.906C417.706 653.979 417.868 671.082 429.761 677.93L438.743 662.331ZM636.491 776.201L438.743 662.331L429.761 677.93L627.509 791.799L636.491 776.201ZM625.501 610.37L623.001 783.87L640.999 784.13L643.499 610.63L625.501 610.37ZM562.728 582.683L630.289 618.454L638.711 602.546L571.15 566.775L562.728 582.683Z" fill="white"/>
<path fill-rule="evenodd" clip-rule="evenodd" d="M976 413L1245.5 243L1065.41 135.133C1058.91 131.238 1050.61 135.713 1050.28 143.286L1044.43 280.643L976 413ZM816.623 972.421L631.934 1080.53L855.234 646.159L1033.49 543.197L816.623 972.421ZM426 1384L610.5 1488L628.073 1342.44L696.285 1207.95L426 1384Z" fill="url(#paint3_linear_103_2)"/>
<path d="M1245.5 243L1250.3 250.612L1262.68 242.802L1250.12 235.279L1245.5 243ZM976 413L968.005 408.867L952.802 438.274L980.802 420.612L976 413ZM1065.41 135.133L1070.04 127.412L1070.04 127.412L1065.41 135.133ZM1050.28 143.286L1041.29 142.903L1041.29 142.903L1050.28 143.286ZM1044.43 280.643L1052.42 284.776L1053.33 283.011L1053.42 281.026L1044.43 280.643ZM631.934 1080.53L623.93 1076.42L609.79 1103.92L636.481 1088.3L631.934 1080.53ZM816.623 972.421L821.169 980.189L823.459 978.848L824.656 976.48L816.623 972.421ZM855.234 646.159L850.732 638.366L848.44 639.69L847.229 642.045L855.234 646.159ZM1033.49 543.197L1041.52 547.256L1055.14 520.295L1028.99 535.404L1033.49 543.197ZM610.5 1488L606.081 1495.84L617.82 1502.46L619.435 1489.08L610.5 1488ZM426 1384L421.088 1376.46L408.657 1384.56L421.581 1391.84L426 1384ZM628.073 1342.44L620.046 1338.37L619.328 1339.79L619.138 1341.36L628.073 1342.44ZM696.285 1207.95L704.312 1212.02L719.49 1182.09L691.373 1200.41L696.285 1207.95ZM1240.7 235.388L971.198 405.388L980.802 420.612L1250.3 250.612L1240.7 235.388ZM1060.79 142.854L1240.88 250.721L1250.12 235.279L1070.04 127.412L1060.79 142.854ZM1059.28 143.67C1059.29 143.415 1059.35 143.272 1059.42 143.175C1059.49 143.056 1059.62 142.929 1059.8 142.832C1059.98 142.735 1060.16 142.698 1060.3 142.699C1060.42 142.699 1060.57 142.723 1060.79 142.854L1070.04 127.412C1057.68 120.012 1041.91 128.513 1041.29 142.903L1059.28 143.67ZM1053.42 281.026L1059.28 143.67L1041.29 142.903L1035.44 280.259L1053.42 281.026ZM983.995 417.133L1052.42 284.776L1036.43 276.51L968.005 408.867L983.995 417.133ZM636.481 1088.3L821.169 980.189L812.076 964.654L627.387 1072.76L636.481 1088.3ZM847.229 642.045L623.93 1076.42L639.938 1084.65L863.238 650.274L847.229 642.045ZM1028.99 535.404L850.732 638.366L859.735 653.953L1037.99 550.99L1028.99 535.404ZM824.656 976.48L1041.52 547.256L1025.45 539.138L808.59 968.363L824.656 976.48ZM614.919 1480.16L430.419 1376.16L421.581 1391.84L606.081 1495.84L614.919 1480.16ZM619.138 1341.36L601.565 1486.92L619.435 1489.08L637.008 1343.52L619.138 1341.36ZM688.259 1203.88L620.046 1338.37L636.1 1346.51L704.312 1212.02L688.259 1203.88ZM430.912 1391.54L701.198 1215.49L691.373 1200.41L421.088 1376.46L430.912 1391.54Z" fill="white"/>
<path d="M1049.92 834L1245.5 941L844 1193.72L898.699 1090.76L1049.92 1003.89V834Z" fill="url(#paint4_linear_103_2)" stroke="white" stroke-width="18"/>
</g>
<defs>
<filter id="filter0_d_103_2" x="406" y="124.687" width="877.258" height="1402.77" filterUnits="userSpaceOnUse" color-interpolation-filters="sRGB">
<feFlood flood-opacity="0" result="BackgroundImageFix"/>
<feColorMatrix in="SourceAlpha" type="matrix" values="0 0 0 0 0 0 0 0 0 0 0 0 0 0 0 0 0 0 127 0" result="hardAlpha"/>
<feOffset dx="9" dy="14"/>
<feGaussianBlur stdDeviation="5.5"/>
<feColorMatrix type="matrix" values="0 0 0 0 0 0 0 0 0 0 0 0 0 0 0 0 0 0 0.25 0"/>
<feBlend mode="normal" in2="BackgroundImageFix" result="effect1_dropShadow_103_2"/>
<feBlend mode="normal" in="SourceGraphic" in2="effect1_dropShadow_103_2" result="shape"/>
</filter>
<linearGradient id="paint0_linear_103_2" x1="696.285" y1="95.954" x2="730.714" y2="1370.11" gradientUnits="userSpaceOnUse">
<stop stop-color="#5398FF"/>
<stop offset="1" stop-color="#62F6FF"/>
</linearGradient>
<linearGradient id="paint1_linear_103_2" x1="1004.53" y1="142.931" x2="940.499" y2="1486.59" gradientUnits="userSpaceOnUse">
<stop stop-color="#6AFFDB"/>
<stop offset="1" stop-color="#76CB98"/>
</linearGradient>
<linearGradient id="paint2_linear_103_2" x1="752.935" y1="426.726" x2="394.629" y2="789.716" gradientUnits="userSpaceOnUse">
<stop stop-color="#D289FF"/>
<stop offset="1" stop-color="#0BA2A2"/>
</linearGradient>
<linearGradient id="paint3_linear_103_2" x1="1097.2" y1="131.286" x2="-56.4891" y2="770.477" gradientUnits="userSpaceOnUse">
<stop stop-color="#D289FF"/>
<stop offset="1" stop-color="#0BA2A2"/>
</linearGradient>
<linearGradient id="paint4_linear_103_2" x1="1172.84" y1="833.356" x2="811.487" y2="1202.64" gradientUnits="userSpaceOnUse">
<stop stop-color="#D289FF"/>
<stop offset="1" stop-color="#0BA2A2"/>
</linearGradient>
</defs>
</svg>
