<svg width="2820" height="1628" viewBox="0 0 2820 1628" fill="none" xmlns="http://www.w3.org/2000/svg">
<g clip-path="url(#clip0_106_2)">
<g filter="url(#filter0_d_106_2)">
<path d="M406.701 430.665L12.8907 663.13C10.8908 664.311 8.36569 662.869 8.36569 660.547V496.947L627.427 144.301V283.944L214.29 1084.48L627.427 842.515V1013.05L0 1373.41V1235.06L406.701 430.665Z" fill="url(#paint0_linear_106_2)" stroke="white" stroke-width="18"/>
<path d="M616.487 547.142L218.152 777.52V613.424L837.213 260.777V400.42L424.076 1200.95L837.213 958.991V1129.52L209.786 1489.89V1351.54L616.487 547.142Z" fill="url(#paint1_linear_106_2)" stroke="white" stroke-width="18"/>
<path fill-rule="evenodd" clip-rule="evenodd" d="M149.939 578.03L218.152 614.067L353.29 536.202L407.345 430.665L149.939 578.03ZM149.939 578.03L217.5 613.801L215 787.301L17.2517 673.432C11.3056 670.008 11.2244 661.456 17.1043 657.92L149.939 578.03Z" fill="url(#paint2_linear_106_2)"/>
<path d="M218.152 614.067L213.947 622.025L218.34 624.346L222.645 621.865L218.152 614.067ZM149.939 578.03L145.467 570.22L145.383 570.268L145.3 570.318L149.939 578.03ZM353.29 536.202L357.783 544L360.088 542.672L361.3 540.305L353.29 536.202ZM407.345 430.665L415.355 434.768L429.168 407.801L402.873 422.855L407.345 430.665ZM217.5 613.801L226.499 613.931L226.578 608.424L221.711 605.847L217.5 613.801ZM215 787.301L210.509 795.101L223.778 802.742L223.999 787.431L215 787.301ZM17.2517 673.432L12.7606 681.231L12.7606 681.231L17.2517 673.432ZM17.1043 657.92L21.7428 665.633L21.7428 665.633L17.1043 657.92ZM222.356 606.109L154.143 570.073L145.735 585.988L213.947 622.025L222.356 606.109ZM348.796 528.404L213.658 606.269L222.645 621.865L357.783 544L348.796 528.404ZM399.335 426.563L345.279 532.099L361.3 540.305L415.355 434.768L399.335 426.563ZM154.411 585.841L411.817 438.476L402.873 422.855L145.467 570.22L154.411 585.841ZM145.728 585.984L213.289 621.755L221.711 605.847L154.15 570.076L145.728 585.984ZM208.501 613.672L206.001 787.172L223.999 787.431L226.499 613.931L208.501 613.672ZM219.491 779.502L21.7428 665.633L12.7606 681.231L210.509 795.101L219.491 779.502ZM21.7428 665.633C21.7208 665.62 21.7096 665.612 21.7063 665.609C21.703 665.607 21.7047 665.607 21.7095 665.612C21.7142 665.617 21.7199 665.624 21.7257 665.631C21.7315 665.639 21.7363 665.647 21.7399 665.653C21.7473 665.666 21.748 665.672 21.7467 665.667C21.7461 665.664 21.7451 665.66 21.7443 665.654C21.7435 665.647 21.7429 665.64 21.7428 665.633C21.7428 665.625 21.7432 665.618 21.7439 665.612C21.7446 665.606 21.7455 665.601 21.7461 665.599C21.7473 665.594 21.7466 665.599 21.7395 665.612C21.736 665.619 21.7314 665.626 21.7258 665.634C21.7201 665.642 21.7145 665.649 21.7099 665.654C21.7052 665.659 21.7035 665.66 21.7068 665.657C21.71 665.654 21.7211 665.646 21.7428 665.633L12.4658 650.207C0.705894 657.28 0.868359 674.383 12.7606 681.231L21.7428 665.633ZM21.7428 665.633L154.578 585.743L145.3 570.318L12.4658 650.207L21.7428 665.633Z" fill="white"/>
<path fill-rule="evenodd" clip-rule="evenodd" d="M559 416.301L828.5 246.301L648.414 138.435C641.91 134.539 633.607 139.014 633.284 146.587L627.427 283.944L559 416.301ZM399.623 975.723L214.934 1083.83L438.234 649.461L616.487 546.498L399.623 975.723ZM9 1387.3L193.5 1491.3L211.073 1345.74L279.285 1211.25L9 1387.3Z" fill="url(#paint3_linear_106_2)"/>
<path d="M828.5 246.301L833.302 253.913L845.684 246.103L833.125 238.58L828.5 246.301ZM559 416.301L551.005 412.168L535.802 441.576L563.802 423.913L559 416.301ZM648.414 138.435L653.038 130.714L653.038 130.714L648.414 138.435ZM633.284 146.587L624.292 146.204L624.292 146.204L633.284 146.587ZM627.427 283.944L635.422 288.077L636.334 286.312L636.419 284.327L627.427 283.944ZM214.934 1083.83L206.93 1079.72L192.79 1107.22L219.481 1091.6L214.934 1083.83ZM399.623 975.723L404.169 983.49L406.459 982.149L407.656 979.781L399.623 975.723ZM438.234 649.461L433.732 641.667L431.44 642.991L430.229 645.346L438.234 649.461ZM616.487 546.498L624.52 550.557L638.142 523.597L611.986 538.705L616.487 546.498ZM193.5 1491.3L189.081 1499.14L200.82 1505.76L202.435 1492.38L193.5 1491.3ZM9 1387.3L4.08792 1379.76L-8.34278 1387.86L4.58059 1395.14L9 1387.3ZM211.073 1345.74L203.046 1341.67L202.328 1343.09L202.138 1344.66L211.073 1345.74ZM279.285 1211.25L287.312 1215.32L302.49 1185.39L274.373 1203.71L279.285 1211.25ZM823.698 238.689L554.198 408.689L563.802 423.913L833.302 253.913L823.698 238.689ZM643.789 146.156L823.875 254.022L833.125 238.58L653.038 130.714L643.789 146.156ZM642.276 146.971C642.287 146.716 642.352 146.573 642.416 146.476C642.493 146.357 642.621 146.23 642.801 146.133C642.98 146.036 643.157 145.999 643.299 146C643.415 146.001 643.57 146.024 643.789 146.156L653.038 130.714C640.682 123.313 624.906 131.814 624.292 146.204L642.276 146.971ZM636.419 284.327L642.276 146.971L624.292 146.204L618.435 283.561L636.419 284.327ZM566.995 420.434L635.422 288.077L619.432 279.811L551.005 412.168L566.995 420.434ZM219.481 1091.6L404.169 983.49L395.076 967.956L210.387 1076.07L219.481 1091.6ZM430.229 645.346L206.93 1079.72L222.938 1087.95L446.238 653.575L430.229 645.346ZM611.986 538.705L433.732 641.667L442.735 657.254L620.989 554.291L611.986 538.705ZM407.656 979.781L624.52 550.557L608.454 542.44L391.59 971.664L407.656 979.781ZM197.919 1483.46L13.4194 1379.46L4.58059 1395.14L189.081 1499.14L197.919 1483.46ZM202.138 1344.66L184.565 1490.22L202.435 1492.38L220.008 1346.82L202.138 1344.66ZM271.259 1207.18L203.046 1341.67L219.1 1349.81L287.312 1215.32L271.259 1207.18ZM13.9121 1394.84L284.198 1218.79L274.373 1203.71L4.08792 1379.76L13.9121 1394.84Z" fill="white"/>
<path d="M632.925 837.301L828.5 944.301L427 1197.03L481.699 1094.06L632.925 1007.19V837.301Z" fill="url(#paint4_linear_106_2)" stroke="white" stroke-width="18"/>
</g>
<path d="M1262 717.5L1143.5 951H1262.5V1009H1071V952L1189 719H1071V659H1262V717.5ZM1296.32 1009V753.5H1362.32V1009H1296.32ZM1296.32 659H1362.32V726.5H1296.32V659ZM1520.71 806H1483.21C1478.21 812 1474.04 820.333 1470.71 831C1467.71 841.667 1466.21 852 1466.21 862H1537.71C1538.37 852 1537.04 841.667 1533.71 831C1530.37 820 1526.04 811.667 1520.71 806ZM1588.71 956.5V1009H1461.71C1438.37 993.333 1421.87 974 1412.21 951C1402.87 927.667 1398.21 904.167 1398.21 880.5C1398.21 825.833 1418.87 783.5 1460.21 753.5H1541.21C1563.54 769.833 1578.71 787.167 1586.71 805.5C1594.71 823.833 1598.71 842.333 1598.71 861C1598.71 879.667 1597.21 895.667 1594.21 909H1469.71C1470.71 916.667 1473.54 925.5 1478.21 935.5C1483.21 945.167 1488.54 952.167 1494.21 956.5H1588.71ZM1698.26 659V1009H1632.26V659H1698.26ZM1893.14 1009H1784.14C1750.81 978 1734.14 935.667 1734.14 882C1734.14 855 1737.81 831.5 1745.14 811.5C1752.81 791.5 1764.81 772.167 1781.14 753.5H1898.14C1915.48 773.5 1927.31 793 1933.64 812C1939.98 830.667 1943.14 854 1943.14 882C1943.14 935.667 1926.48 978 1893.14 1009ZM1819.64 956.5H1857.64C1869.64 933.167 1875.64 906.667 1875.64 877C1875.64 847.333 1869.48 823.667 1857.14 806H1819.64C1807.64 823 1801.64 847.167 1801.64 878.5C1801.64 909.5 1807.64 935.5 1819.64 956.5ZM2089.94 753.5H2142.94C2157.6 772.167 2167.6 790.833 2172.94 809.5C2178.27 828.167 2180.94 851.5 2180.94 879.5V1009H2114.44V874.5C2114.44 842.833 2110.1 820 2101.44 806H2045.44V1009H1978.94V753.5H2030.94L2039.94 771.5C2047.27 764.833 2054.1 760.167 2060.44 757.5C2067.1 754.833 2076.94 753.5 2089.94 753.5ZM2247.1 753.5H2357.6V806H2279.6L2327.1 876.5C2348.43 906.833 2360.27 927.667 2362.6 939C2363.93 944.333 2364.6 949.833 2364.6 955.5C2364.6 979.167 2355.77 997 2338.1 1009H2210.6V956.5H2302.1L2248.6 878C2246.27 874.333 2242.6 869.167 2237.6 862.5C2232.93 855.833 2229.27 850.5 2226.6 846.5C2223.93 842.167 2222.1 839 2221.1 837C2220.1 835 2218.77 832.5 2217.1 829.5C2215.43 826.167 2214.27 823.333 2213.6 821C2212.27 814.667 2211.6 809.5 2211.6 805.5C2211.6 781.167 2223.43 763.833 2247.1 753.5ZM2396.91 1009V659H2463.41V844.5H2470.41L2517.41 753.5H2582.41L2523.41 865L2582.91 1009H2516.91L2470.91 897H2463.41V1009H2396.91ZM2603.41 868.5V753.5H2669.91V869C2669.91 898 2675.75 922.167 2687.41 941.5H2716.91C2727.91 922.5 2733.41 898.333 2733.41 869V753.5H2799.91V865C2799.91 890 2796.58 912 2789.91 931C2783.58 950 2773.08 971.5 2758.41 995.5L2724.91 1050C2718.91 1060.33 2712.58 1068 2705.91 1073C2699.25 1078 2690.58 1081.67 2679.91 1084H2600.91V1031.5H2654.91C2661.91 1029.5 2667.75 1026 2672.41 1021C2677.08 1016 2681.91 1008.83 2686.91 999.5L2689.91 994H2655.41C2639.41 981 2626.75 963.5 2617.41 941.5C2608.08 919.167 2603.41 894.833 2603.41 868.5Z" fill="white"/>
<rect x="1296" y="659" width="67" height="68" fill="url(#paint5_linear_106_2)"/>
</g>
<defs>
<filter id="filter0_d_106_2" x="-11" y="127.988" width="877.258" height="1402.77" filterUnits="userSpaceOnUse" color-interpolation-filters="sRGB">
<feFlood flood-opacity="0" result="BackgroundImageFix"/>
<feColorMatrix in="SourceAlpha" type="matrix" values="0 0 0 0 0 0 0 0 0 0 0 0 0 0 0 0 0 0 127 0" result="hardAlpha"/>
<feOffset dx="9" dy="14"/>
<feGaussianBlur stdDeviation="5.5"/>
<feColorMatrix type="matrix" values="0 0 0 0 0 0 0 0 0 0 0 0 0 0 0 0 0 0 0.25 0"/>
<feBlend mode="normal" in2="BackgroundImageFix" result="effect1_dropShadow_106_2"/>
<feBlend mode="normal" in="SourceGraphic" in2="effect1_dropShadow_106_2" result="shape"/>
</filter>
<linearGradient id="paint0_linear_106_2" x1="279.285" y1="99.2552" x2="313.714" y2="1373.41" gradientUnits="userSpaceOnUse">
<stop stop-color="#5398FF"/>
<stop offset="1" stop-color="#62F6FF"/>
</linearGradient>
<linearGradient id="paint1_linear_106_2" x1="587.529" y1="146.232" x2="523.499" y2="1489.89" gradientUnits="userSpaceOnUse">
<stop stop-color="#6AFFDB"/>
<stop offset="1" stop-color="#76CB98"/>
</linearGradient>
<linearGradient id="paint2_linear_106_2" x1="335.935" y1="430.027" x2="-22.3713" y2="793.018" gradientUnits="userSpaceOnUse">
<stop stop-color="#D289FF"/>
<stop offset="1" stop-color="#0BA2A2"/>
</linearGradient>
<linearGradient id="paint3_linear_106_2" x1="680.197" y1="134.577" x2="-473.493" y2="773.766" gradientUnits="userSpaceOnUse">
<stop stop-color="#D289FF"/>
<stop offset="1" stop-color="#0BA2A2"/>
</linearGradient>
<linearGradient id="paint4_linear_106_2" x1="755.842" y1="836.657" x2="394.487" y2="1205.94" gradientUnits="userSpaceOnUse">
<stop stop-color="#D289FF"/>
<stop offset="1" stop-color="#0BA2A2"/>
</linearGradient>
<linearGradient id="paint5_linear_106_2" x1="1325.82" y1="656.508" x2="1326.81" y2="727.038" gradientUnits="userSpaceOnUse">
<stop stop-color="#5398FF"/>
<stop offset="1" stop-color="#62F6FF"/>
</linearGradient>
<clipPath id="clip0_106_2">
<rect width="2820" height="1628" fill="white"/>
</clipPath>
</defs>
</svg>
