<svg width="1563" height="1551" viewBox="0 0 1563 1551" fill="none" xmlns="http://www.w3.org/2000/svg">
<path d="M1270 469.5H301.5L397 578H1046L652 1093H1093L1145.5 984.5H881.5L1270 469.5Z" fill="white"/>
<path d="M397 881.5V1093H292V881.5L392.5 780.5C652 785.5 699 795.5 705.5 646.5H809C791.734 889.338 669.053 906.637 397 881.5Z" fill="white"/>
<path d="M1270.5 989L1145.5 1093H1270.5V989Z" fill="white"/>
<path d="M1513 775.5C1513 1175.82 1185.86 1501 781.5 1501C377.14 1501 50 1175.82 50 775.5C50 375.18 377.14 50 781.5 50C1185.86 50 1513 375.18 1513 775.5Z" stroke="white" stroke-width="100"/>
</svg>
